<svg width="10" height="10" fill="none" xmlns="http://www.w3.org/2000/svg"><path fill-rule="evenodd" clip-rule="evenodd" d="m.009 4.679 2.505-.664a.333.333 0 0 0 .21-.171.314.314 0 0 0 .006-.266L1.7 1.252a5.08 5.08 0 0 1 .519-.405l2.095 1.498a.332.332 0 0 0 .484-.108L6.017 0a5.3 5.3 0 0 1 .65.147l.105 2.53a.315.315 0 0 0 .123.237.33.33 0 0 0 .264.065l2.553-.464c.108.19.203.386.285.588L8.038 4.76a.32.32 0 0 0-.113.242.314.314 0 0 0 .113.242L10 6.904a5.164 5.164 0 0 1-.293.584l-2.548-.462a.335.335 0 0 0-.264.065.322.322 0 0 0-.123.237l-.106 2.527-.07.021c-.083.025-.165.05-.25.067-.097.022-.193.036-.288.05L6.016 10 4.797 7.767a.324.324 0 0 0-.216-.162.336.336 0 0 0-.267.054L2.223 9.156a5.23 5.23 0 0 1-.523-.404l1.03-2.325a.32.32 0 0 0-.216-.436L.013 5.33a5.098 5.098 0 0 1-.004-.65ZM5.303 6a1 1 0 1 0 0-2 1 1 0 0 0 0 2Z" fill="#000"/></svg>