<svg width="512" height="512" fill="none" xmlns="http://www.w3.org/2000/svg"><g clip-path="url(#a)"><path d="M256 512c141.385 0 256-114.615 256-256S397.385 0 256 0 0 114.615 0 256s114.615 256 256 256Z" fill="#FCFCFC"/><path d="m105.739 237.449-27.826-50.483 27.826-49.691 27.826 49.691-27.826 50.483Zm-55.652 0L22.26 186.966l27.826-49.691 27.826 49.691-27.826 50.483Zm55.652 137.276-27.826-50.483 27.826-49.691 27.826 49.691-27.826 50.483Zm-55.652 0L22.26 324.242l27.826-49.691 27.826 49.691-27.826 50.483Zm83.478-325.033-7.878-14.068a256.7 256.7 0 0 0-39.594 28.909l19.646 35.641 27.826-50.482Zm-27.826 362.134-19.854 35.456a256.713 256.713 0 0 0 39.568 28.955l8.113-14.719-27.827-49.692Z" fill="#A2001D"/><path d="M155.826 322.783v168.863C186.595 504.743 220.448 512 256 512c110.071 0 203.906-69.472 240.077-166.957l-340.251-22.26Z" fill="#6DA544"/><path d="M496.077 345.043C506.368 317.31 512 287.314 512 256 512 114.616 397.384 0 256 0c-35.549 0-69.405 7.253-100.174 20.348v324.696h340.251v-.001Z" fill="#A2001D"/></g><defs><clipPath id="a"><path fill="#fff" d="M0 0h512v512H0z"/></clipPath></defs></svg>