<svg width="512" height="512" fill="none" xmlns="http://www.w3.org/2000/svg"><g clip-path="url(#a)"><path d="M256 511.999c141.385 0 256-114.615 256-256s-114.615-256-256-256-256 114.615-256 256 114.615 256 256 256Z" fill="#F0F0F0"/><path d="M244.87 255.999H512c0-23.106-3.08-45.49-8.819-66.783H244.87v66.783Zm0-133.565h229.556a257.349 257.349 0 0 0-59.07-66.783H244.87v66.783ZM256 511.999c60.249 0 115.626-20.824 159.356-55.652H96.644c43.73 34.828 99.107 55.652 159.356 55.652ZM37.574 389.564h436.852a254.474 254.474 0 0 0 28.755-66.783H8.819a254.472 254.472 0 0 0 28.755 66.783Z" fill="#D80027"/><path d="M118.584 39.977h23.329l-21.7 15.765 8.289 25.509-21.699-15.765-21.699 15.765 7.16-22.037a257.407 257.407 0 0 0-49.652 55.337h7.475l-13.813 10.035a255.58 255.58 0 0 0-6.194 10.938l6.596 20.301-12.306-8.941a253.567 253.567 0 0 0-8.372 19.873l7.267 22.368h26.822l-21.7 15.765 8.289 25.509-21.699-15.765-12.998 9.444A258.468 258.468 0 0 0 0 255.999h256v-256c-50.572 0-97.715 14.67-137.416 39.978Zm9.918 190.422-21.699-15.765-21.699 15.765 8.289-25.509-21.7-15.765h26.822l8.288-25.509 8.288 25.509h26.822l-21.7 15.765 8.289 25.509Zm-8.289-100.083 8.289 25.509-21.699-15.765-21.699 15.765 8.289-25.509-21.7-15.765h26.822l8.288-25.509 8.288 25.509h26.822l-21.7 15.765Zm100.115 100.083-21.699-15.765-21.699 15.765 8.289-25.509-21.7-15.765h26.822l8.288-25.509 8.288 25.509h26.822l-21.7 15.765 8.289 25.509Zm-8.289-100.083 8.289 25.509-21.699-15.765-21.699 15.765 8.289-25.509-21.7-15.765h26.822l8.288-25.509 8.288 25.509h26.822l-21.7 15.765Zm0-74.574 8.289 25.509-21.699-15.765-21.699 15.765 8.289-25.509-21.7-15.765h26.822l8.288-25.509 8.288 25.509h26.822l-21.7 15.765Z" fill="#0052B4"/></g><defs><clipPath id="a"><path fill="#fff" transform="translate(0 -.001)" d="M0 0h512v512H0z"/></clipPath></defs></svg>