<svg width="121" height="33" fill="none" xmlns="http://www.w3.org/2000/svg"><path d="M19.53 15.69c-.033-3.45 2.896-5.128 3.03-5.206-1.659-2.358-4.23-2.68-5.133-2.706-2.159-.221-4.253 1.26-5.353 1.26-1.122 0-2.816-1.238-4.641-1.202-2.35.035-4.547 1.361-5.752 3.42-2.487 4.199-.632 10.369 1.751 13.762 1.192 1.662 2.585 3.518 4.408 3.453 1.784-.072 2.45-1.109 4.603-1.109 2.132 0 2.758 1.109 4.618 1.067 1.914-.03 3.119-1.67 4.27-3.346 1.377-1.905 1.93-3.781 1.952-3.878-.045-.015-3.718-1.381-3.754-5.516ZM16.017 5.546c.959-1.17 1.615-2.761 1.433-4.376-1.388.06-3.125.936-4.125 2.08-.885 1.008-1.675 2.66-1.47 4.215 1.56.113 3.16-.768 4.162-1.92Zm24.238-.543c0 1.182-.386 2.073-1.155 2.67-.712.552-1.724.829-3.036.829-.65 0-1.206-.026-1.672-.079V1.961c.607-.09 1.262-.137 1.969-.137 1.25 0 2.19.25 2.826.75.71.566 1.068 1.375 1.068 2.429Zm-1.206.029c0-.767-.22-1.355-.661-1.765-.44-.409-1.084-.614-1.932-.614-.36 0-.667.022-.92.068v4.913c.14.02.397.03.771.03.875 0 1.55-.225 2.026-.673.476-.448.716-1.101.716-1.96Zm7.598 1.003c0 .73-.226 1.326-.678 1.794-.473.482-1.1.722-1.884.722-.755 0-1.356-.23-1.804-.693-.448-.46-.671-1.043-.671-1.744 0-.734.23-1.336.692-1.803.463-.467 1.085-.701 1.868-.701.755 0 1.362.23 1.82.691.437.448.657 1.027.657 1.734Zm-1.186.035c0-.437-.103-.812-.307-1.125a1.146 1.146 0 0 0-1.025-.567c-.46 0-.809.19-1.049.567-.205.313-.306.694-.306 1.144 0 .437.102.812.306 1.124.248.378.593.567 1.038.567.436 0 .779-.192 1.025-.577.212-.318.318-.696.318-1.133Zm9.756-2.364-1.609 4.737h-1.047l-.667-2.057a14.402 14.402 0 0 1-.413-1.53h-.021c-.1.52-.237 1.03-.414 1.53l-.708 2.057H49.28l-1.513-4.737h1.175l.581 2.252c.141.533.257 1.04.35 1.52h.02c.085-.395.226-.9.424-1.51l.73-2.26h.932l.7 2.212c.169.54.306 1.06.412 1.56h.031a13.89 13.89 0 0 1 .35-1.56l.623-2.213h1.123v-.001Zm5.927 4.737h-1.143V5.73c0-.836-.345-1.254-1.036-1.254-.34 0-.614.115-.826.345-.21.23-.318.501-.318.812v2.81h-1.143V5.06c0-.416-.014-.867-.041-1.356h1.004l.054.74h.031c.133-.23.332-.42.593-.571.31-.177.656-.266 1.036-.266.48 0 .88.142 1.197.429.395.35.592.874.592 1.57v2.837Zm3.153 0h-1.142v-6.91h1.142v6.91Zm6.731-2.408c0 .73-.225 1.326-.677 1.794-.473.482-1.102.722-1.884.722-.756 0-1.357-.23-1.805-.693-.447-.46-.67-1.043-.67-1.744 0-.734.23-1.336.692-1.803.463-.467 1.085-.701 1.867-.701.756 0 1.361.23 1.822.691.436.448.655 1.027.655 1.734Zm-1.186.035c0-.437-.103-.812-.307-1.125a1.145 1.145 0 0 0-1.024-.567c-.46 0-.81.19-1.049.567-.205.313-.306.694-.306 1.144 0 .437.102.812.306 1.124.248.378.593.567 1.038.567.436 0 .778-.192 1.024-.577.213-.318.318-.696.318-1.133Zm6.72 2.373h-1.027l-.085-.545h-.032c-.35.435-.852.653-1.502.653-.485 0-.878-.144-1.174-.43a1.289 1.289 0 0 1-.402-.964c0-.579.262-1.02.789-1.325.525-.306 1.265-.456 2.218-.449v-.088c0-.624-.356-.936-1.069-.936-.507 0-.954.118-1.34.351l-.233-.691c.478-.273 1.068-.41 1.764-.41 1.345 0 2.019.654 2.019 1.96v1.745c0 .473.025.85.074 1.13Zm-1.187-1.628v-.73c-1.261-.02-1.892.298-1.892.954 0 .248.072.433.22.556a.841.841 0 0 0 .558.185c.251 0 .486-.073.7-.219a.894.894 0 0 0 .395-.56.824.824 0 0 0 .019-.186Zm7.684 1.628h-1.015l-.053-.76h-.032c-.324.578-.876.868-1.652.868-.62 0-1.136-.224-1.545-.672-.409-.449-.613-1.03-.613-1.745 0-.767.222-1.388.667-1.862.43-.442.959-.663 1.587-.663.69 0 1.174.214 1.449.643h.022v-2.72h1.144v5.635c0 .461.013.886.04 1.276Zm-1.185-1.997v-.79c0-.137-.011-.248-.032-.332a1.185 1.185 0 0 0-.413-.638 1.182 1.182 0 0 0-.765-.258c-.427 0-.76.155-1.006.468-.243.312-.367.711-.367 1.199 0 .468.117.848.352 1.14.247.312.581.468 1 .468.374 0 .674-.13.902-.39.22-.24.329-.53.329-.867Zm10.963-.411c0 .73-.226 1.326-.678 1.794-.473.482-1.1.722-1.884.722-.754 0-1.355-.23-1.804-.693-.447-.46-.671-1.043-.671-1.744 0-.734.23-1.336.693-1.803.462-.467 1.084-.701 1.869-.701.753 0 1.361.23 1.82.691.436.448.655 1.027.655 1.734Zm-1.185.035c0-.437-.102-.812-.306-1.125-.242-.378-.582-.567-1.027-.567-.458 0-.807.19-1.049.567-.205.313-.306.694-.306 1.144 0 .437.103.812.306 1.124.248.378.593.567 1.038.567.436 0 .78-.192 1.027-.577.21-.318.317-.696.317-1.133Zm7.332 2.373h-1.142V5.73c0-.836-.345-1.254-1.037-1.254-.34 0-.613.115-.825.345a1.16 1.16 0 0 0-.318.812v2.81h-1.144V5.06c0-.416-.013-.867-.04-1.356h1.003l.054.74h.031a1.6 1.6 0 0 1 .593-.571 2.062 2.062 0 0 1 1.037-.266c.48 0 .879.142 1.196.429.396.35.592.874.592 1.57v2.837Zm7.695-3.948h-1.259v2.301c0 .585.224.878.667.878.205 0 .375-.017.509-.05l.03.8c-.226.078-.523.117-.888.117-.452 0-.803-.127-1.058-.38s-.381-.68-.381-1.277V4.495h-.752v-.789h.752v-.868l1.12-.312v1.18h1.259v.789h.001Zm6.053 3.948h-1.145V5.75c0-.849-.344-1.274-1.035-1.274-.53 0-.892.246-1.091.739-.034.103-.053.23-.053.378v2.85h-1.143v-6.91h1.143v2.854h.021c.36-.52.876-.778 1.545-.778.474 0 .865.142 1.176.429.387.356.582.887.582 1.589v2.816Zm6.243-2.593c0 .19-.015.348-.042.478h-3.429c.015.468.179.825.496 1.072.29.221.665.332 1.123.332.507 0 .97-.075 1.386-.224l.179.731c-.487.195-1.061.293-1.726.293-.796 0-1.423-.216-1.877-.648-.456-.433-.682-1.012-.682-1.74 0-.714.211-1.31.635-1.784.443-.506 1.042-.76 1.798-.76.74 0 1.301.254 1.681.76.307.402.458.9.458 1.49Zm-1.091-.272a1.33 1.33 0 0 0-.221-.809c-.199-.292-.501-.439-.91-.439-.373 0-.678.143-.91.43-.19.227-.302.5-.339.818h2.38ZM45.268 26.603H42.79l-1.357-3.928h-4.718l-1.292 3.928H33.01l4.673-13.373h2.887l4.697 13.373Zm-4.244-5.576-1.228-3.492c-.13-.357-.373-1.197-.732-2.52h-.043a90.819 90.819 0 0 1-.69 2.52l-1.205 3.492h3.898Zm16.263.636c0 1.64-.481 2.936-1.444 3.888-.862.847-1.932 1.27-3.21 1.27-1.378 0-2.369-.456-2.972-1.369h-.044v5.08h-2.326V20.134c0-1.03-.03-2.089-.086-3.174h2.046l.13 1.528h.043c.776-1.151 1.953-1.726 3.533-1.726 1.235 0 2.266.45 3.09 1.349.827.9 1.24 2.084 1.24 3.552Zm-2.37.078c0-.938-.229-1.712-.69-2.321-.502-.635-1.178-.953-2.024-.953-.574 0-1.096.177-1.561.526a2.416 2.416 0 0 0-.916 1.38 2.6 2.6 0 0 0-.108.653v1.608c0 .701.234 1.293.7 1.776.468.484 1.074.725 1.82.725.877 0 1.558-.312 2.046-.933.489-.622.733-1.442.733-2.46Zm14.411-.078c0 1.64-.481 2.936-1.445 3.888-.86.847-1.93 1.27-3.208 1.27-1.38 0-2.37-.456-2.972-1.369h-.044v5.08h-2.326V20.134c0-1.03-.03-2.089-.086-3.174h2.046l.13 1.528h.043c.775-1.151 1.952-1.726 3.533-1.726 1.234 0 2.265.45 3.092 1.349.823.9 1.237 2.084 1.237 3.552Zm-2.37.078c0-.938-.23-1.712-.69-2.321-.503-.635-1.177-.953-2.024-.953a2.55 2.55 0 0 0-1.563.526 2.415 2.415 0 0 0-.914 1.38 2.69 2.69 0 0 0-.108.653v1.608c0 .701.234 1.293.699 1.776.467.483 1.073.725 1.821.725.876 0 1.558-.312 2.046-.933.489-.622.733-1.442.733-2.46Zm15.832 1.112c0 1.137-.428 2.063-1.29 2.777-.945.781-2.262 1.171-3.954 1.171-1.562 0-2.815-.277-3.763-.833l.54-1.786c1.02.57 2.14.855 3.362.855.876 0 1.557-.183 2.047-.547.488-.364.731-.852.731-1.461 0-.543-.2-1-.603-1.371-.4-.37-1.07-.716-2.003-1.034-2.542-.873-3.812-2.153-3.812-3.835 0-1.1.445-2 1.337-2.702.887-.703 2.072-1.053 3.554-1.053 1.321 0 2.418.212 3.294.635l-.58 1.746c-.82-.41-1.744-.615-2.78-.615-.818 0-1.457.186-1.915.556-.388.33-.582.734-.582 1.211 0 .529.222.966.667 1.31.387.317 1.09.66 2.112 1.032 1.249.463 2.166 1.004 2.757 1.625.588.62.881 1.394.881 2.319Zm7.69-4.285h-2.563v4.682c0 1.19.451 1.785 1.357 1.785.415 0 .76-.033 1.033-.1l.064 1.628c-.458.158-1.061.237-1.808.237-.92 0-1.637-.258-2.155-.774-.516-.516-.776-1.383-.776-2.6v-4.86h-1.527v-1.608h1.527v-1.766l2.285-.635v2.4h2.563v1.61Zm11.568 3.134c0 1.482-.461 2.7-1.379 3.651-.963.98-2.242 1.468-3.836 1.468-1.536 0-2.759-.47-3.671-1.408-.912-.938-1.368-2.123-1.368-3.551 0-1.494.469-2.718 1.41-3.67.94-.953 2.208-1.43 3.801-1.43 1.537 0 2.773.47 3.705 1.41.893.911 1.338 2.088 1.338 3.53Zm-2.413.07c0-.89-.207-1.653-.624-2.289-.488-.77-1.185-1.153-2.088-1.153-.936 0-1.646.385-2.133 1.153-.418.637-.624 1.412-.624 2.329 0 .889.206 1.652.624 2.287.503.77 1.205 1.154 2.112 1.154.888 0 1.585-.392 2.088-1.174.429-.648.645-1.42.645-2.308Zm9.973-2.928a4.386 4.386 0 0 0-.733-.06c-.818 0-1.451.285-1.896.855-.387.503-.581 1.138-.581 1.904v5.06h-2.325l.021-6.606c0-1.112-.029-2.124-.087-3.036h2.026l.085 1.845h.065a3.306 3.306 0 0 1 1.163-1.527 2.972 2.972 0 0 1 1.681-.517c.215 0 .409.014.581.04v2.042Zm10.403 2.481c0 .384-.028.708-.086.972h-6.977c.027.953.364 1.681 1.012 2.184.588.449 1.349.674 2.282.674 1.034 0 1.976-.152 2.824-.456l.364 1.487c-.99.398-2.16.596-3.509.596-1.624 0-2.898-.44-3.825-1.32-.925-.879-1.389-2.06-1.389-3.54 0-1.455.431-2.666 1.294-3.631.903-1.032 2.124-1.547 3.66-1.547 1.509 0 2.651.515 3.427 1.547.614.819.923 1.831.923 3.034Zm-2.218-.555c.015-.636-.137-1.184-.452-1.648-.403-.595-1.021-.893-1.854-.893-.76 0-1.379.29-1.851.873-.387.464-.617 1.02-.688 1.667h4.845Z" fill="#F8F9FA"/></svg>